<?xml version="1.0" encoding="UTF-8" standalone="no"?>
<svg
   version="1.1"
   id="svg4"
   width="1024"
   height="1024"
   xmlns="http://www.w3.org/2000/svg"
   xmlns:svg="http://www.w3.org/2000/svg">
  <defs
     id="defs1" />
  <g
     id="g4">
    <path
       stroke="none"
       fill="#333335"
       d="M 0,0 H 1024 V 1024 H 0 V 0"
       id="path1" />
    <path
       stroke="none"
       fill="#000000"
       fill-opacity="0.101961"
       d="m 896,128 h 128 V 256 H 896 v 128 h 128 V 512 H 896 v 128 h 128 V 768 H 896 v 128 h 128 v 128 H 896 V 896 H 768 v 128 H 640 V 896 H 512 v 128 H 384 V 896 H 256 v 128 H 128 V 896 H 0 V 768 H 128 V 640 H 0 V 512 H 128 V 384 H 0 V 256 H 128 V 128 H 0 V 0 H 128 V 128 H 256 V 0 H 384 V 128 H 512 V 0 H 640 V 128 H 768 V 0 H 896 V 128 H 768 V 256 H 640 V 128 H 512 V 256 H 384 V 128 H 256 V 256 H 128 V 384 H 256 V 512 H 128 V 640 H 256 V 768 H 128 V 896 H 256 V 768 H 384 V 896 H 512 V 768 H 640 V 896 H 768 V 768 H 896 V 640 H 768 V 512 H 896 V 384 H 768 V 256 H 896 V 128 M 768,640 V 768 H 640 V 640 H 512 V 768 H 384 V 640 H 256 V 512 H 384 V 384 H 256 V 256 H 384 V 384 H 512 V 256 H 640 V 384 H 768 V 512 H 640 V 640 H 768 M 640,384 H 512 V 512 H 640 V 384 M 512,640 V 512 H 384 v 128 h 128"
       id="path2" />
    <path
       stroke="none"
       fill="#ffffff"
       d="M 1022,510 V 2 H 514 510 2 v 508 4 508 h 508 4 508 V 514.05 510 M 0,0 H 1024 V 1024 H 0 V 0"
       id="path3" />
    <path
       stroke="none"
       fill="#ffffff"
       fill-opacity="0.2"
       d="m 1022,510 v 4.05 L 514,514 v 508 h -4 V 514 H 2 v -4 H 510 V 2 h 4 v 508 h 508"
       id="path4" />
  </g>
</svg>
